<?xml version="1.0" encoding="UTF-8"?>
<svg id="Layer_1" xmlns="http://www.w3.org/2000/svg" version="1.1" viewBox="0 0 34.7 17.3">
  <!-- Generator: Adobe Illustrator 29.1.0, SVG Export Plug-In . SVG Version: 2.1.0 Build 142)  -->
  <path d="M8.3,5.3c-.1-.2-.4-.4-.6-.6-.4-.2-.9-.3-1.3-.1-.4.1-.8.4-1,.8l-3.7,5.9c-.3.5-.2,1.1.3,1.4.2.1.3.2.5.2.3,0,.7-.2.8-.5l3.5-5.5,3.4,5.5c.3.5.9.6,1.4.3.5-.3.6-.9.3-1.4l-3.7-6Z"/>
  <path d="M13.1,4.9v7.3c0,.6.4,1,1,1s1-.4,1-1v-7.3c-.3.2-.6.3-1,.3s-.7-.1-1-.3Z"/>
  <path d="M20.5,4.1c-2.2,0-4,1.6-4.4,3.6,0,.3,0,.6,0,.9s0,.2,0,.3c0,0,0,.1,0,.2v6c0,.6.4,1,1,1s1-.4,1-1v-2.8c.7.5,1.6.8,2.5.8,2.5,0,4.5-2,4.5-4.5s-2-4.5-4.5-4.5ZM20.5,11.1c-1.4,0-2.5-1.1-2.5-2.5s1.1-2.5,2.5-2.5,2.5,1.1,2.5,2.5-1.1,2.5-2.5,2.5Z"/>
  <path d="M32.9,10.4c-.4-.4-1-.4-1.4,0s-.5.4-.8.5c-.6.3-1.3.3-1.9,0-.3-.1-.6-.3-.8-.5-.2-.2-.4-.5-.5-.8-.1-.3-.2-.6-.2-1s0-.7.2-1c.1-.3.3-.6.5-.8.2-.2.5-.4.8-.5.6-.3,1.3-.3,1.9,0,.3.1.6.3.8.5.4.4,1,.4,1.4,0,.4-.4.4-1,0-1.4-.4-.4-.9-.7-1.4-1-1.1-.5-2.4-.5-3.5,0-.5.2-1,.6-1.4,1-.4.4-.7.9-1,1.4-.2.6-.4,1.1-.4,1.8s.1,1.2.4,1.8c.2.5.6,1,1,1.4.4.4.9.7,1.4,1,.6.2,1.1.4,1.8.4s1.2-.1,1.8-.4c.5-.2,1-.5,1.4-1s.4-1,0-1.4Z"/>
  <path d="M6.8,9.4c-.6,0-1,.4-1,1s.4,1,1,1,1-.4,1-1-.4-1-1-1Z"/>
  <path d="M14.1,4.1c.6,0,1-.4,1-1s-.4-1-1-1-1,.4-1,1,.4,1,1,1Z"/>
</svg>